<svg xmlns="http://www.w3.org/2000/svg" viewBox="0 0 1200 900" width="1200" height="900">
  <defs>
    <linearGradient id="bgGradient" x1="0%" y1="0%" x2="100%" y2="100%">
      <stop offset="0%" stop-color="#0a1628"/>
      <stop offset="50%" stop-color="#1a365d"/>
      <stop offset="100%" stop-color="#0a1628"/>
    </linearGradient>
  </defs>
  
  <!-- Background -->
  <rect width="1200" height="900" fill="url(#bgGradient)"/>
  
  <!-- Title -->
  <text x="600" y="50" text-anchor="middle" font-family="Inter, Arial, sans-serif" font-size="28" font-weight="700" fill="#e2e8f0">ELETHERIOS SYSTEM ARCHITECTURE</text>
  <line x1="480" y1="65" x2="720" y2="65" stroke="#d4a012" stroke-width="3" stroke-linecap="round"/>
  
  <!-- ==================== LAYER 1: DATA INGESTION ==================== -->
  <g transform="translate(50, 90)">
    <!-- Layer background -->
    <rect x="0" y="0" width="1100" height="110" rx="12" fill="#0a1628" stroke="#00d4ff" stroke-width="1" opacity="0.9"/>
    <rect x="0" y="0" width="1100" height="110" rx="12" fill="#00d4ff" opacity="0.05"/>
    
    <!-- Layer label -->
    <text x="25" y="35" font-family="Inter, Arial, sans-serif" font-size="14" font-weight="600" fill="#00d4ff" letter-spacing="2">DATA INGESTION</text>
    
    <!-- Components -->
    <rect x="25" y="50" width="140" height="45" rx="8" fill="#0d2847" stroke="#00d4ff" stroke-width="1" opacity="0.8"/>
    <text x="95" y="78" text-anchor="middle" font-family="Inter, Arial, sans-serif" font-size="13" fill="#e2e8f0">PDF Parser</text>
    
    <rect x="185" y="50" width="140" height="45" rx="8" fill="#0d2847" stroke="#00d4ff" stroke-width="1" opacity="0.8"/>
    <text x="255" y="78" text-anchor="middle" font-family="Inter, Arial, sans-serif" font-size="13" fill="#e2e8f0">Text Extraction</text>
    
    <rect x="345" y="50" width="140" height="45" rx="8" fill="#0d2847" stroke="#00d4ff" stroke-width="1" opacity="0.8"/>
    <text x="415" y="78" text-anchor="middle" font-family="Inter, Arial, sans-serif" font-size="13" fill="#e2e8f0">Chunk Processor</text>
    
    <rect x="505" y="50" width="140" height="45" rx="8" fill="#0d2847" stroke="#00d4ff" stroke-width="1" opacity="0.8"/>
    <text x="575" y="78" text-anchor="middle" font-family="Inter, Arial, sans-serif" font-size="13" fill="#e2e8f0">JSONL Generator</text>
    
    <rect x="665" y="50" width="140" height="45" rx="8" fill="#0d2847" stroke="#00d4ff" stroke-width="1.5"/>
    <text x="735" y="78" text-anchor="middle" font-family="Inter, Arial, sans-serif" font-size="13" fill="#e2e8f0">Data Wizard UI</text>
    
    <!-- Input sources -->
    <text x="855" y="55" font-family="Inter, Arial, sans-serif" font-size="11" fill="#64748b">INPUT SOURCES</text>
    <text x="855" y="72" font-family="Inter, Arial, sans-serif" font-size="11" fill="#94a3b8">• PDFs, HTML, Text</text>
    <text x="855" y="87" font-family="Inter, Arial, sans-serif" font-size="11" fill="#94a3b8">• Structured Data</text>
  </g>
  
  <!-- Arrow down -->
  <polygon points="600,205 595,215 600,225 605,215" fill="#00d4ff"/>
  <line x1="600" y1="200" x2="600" y2="215" stroke="#00d4ff" stroke-width="2"/>
  
  <!-- ==================== LAYER 2: LLM EXTRACTION ==================== -->
  <g transform="translate(50, 230)">
    <!-- Layer background -->
    <rect x="0" y="0" width="1100" height="130" rx="12" fill="#0a1628" stroke="#d4a012" stroke-width="1" opacity="0.9"/>
    <rect x="0" y="0" width="1100" height="130" rx="12" fill="#d4a012" opacity="0.05"/>
    
    <!-- Layer label -->
    <text x="25" y="35" font-family="Inter, Arial, sans-serif" font-size="14" font-weight="600" fill="#d4a012" letter-spacing="2">LLM EXTRACTION — SEVEN DIMENSIONS</text>
    
    <!-- Ollama badge -->
    <rect x="950" y="12" width="120" height="28" rx="14" fill="#1a1a0a" stroke="#d4a012" stroke-width="1"/>
    <text x="1010" y="31" text-anchor="middle" font-family="Inter, Arial, sans-serif" font-size="11" fill="#d4a012">mistral-nemo:12b</text>
    
    <!-- 7 extraction boxes -->
    <rect x="25" y="55" width="130" height="55" rx="8" fill="#1a1a0a" stroke="#d4a012" stroke-width="1"/>
    <text x="90" y="78" text-anchor="middle" font-family="Inter, Arial, sans-serif" font-size="13" font-weight="500" fill="#e2e8f0">Claims</text>
    <text x="90" y="95" text-anchor="middle" font-family="Inter, Arial, sans-serif" font-size="10" fill="#64748b">Assertions</text>
    
    <rect x="170" y="55" width="130" height="55" rx="8" fill="#1a1a0a" stroke="#d4a012" stroke-width="1"/>
    <text x="235" y="78" text-anchor="middle" font-family="Inter, Arial, sans-serif" font-size="13" font-weight="500" fill="#e2e8f0">Entities</text>
    <text x="235" y="95" text-anchor="middle" font-family="Inter, Arial, sans-serif" font-size="10" fill="#64748b">People &amp; Orgs</text>
    
    <rect x="315" y="55" width="130" height="55" rx="8" fill="#1a1a0a" stroke="#d4a012" stroke-width="1"/>
    <text x="380" y="78" text-anchor="middle" font-family="Inter, Arial, sans-serif" font-size="13" font-weight="500" fill="#e2e8f0">Temporal</text>
    <text x="380" y="95" text-anchor="middle" font-family="Inter, Arial, sans-serif" font-size="10" fill="#64748b">Dates</text>
    
    <rect x="460" y="55" width="130" height="55" rx="8" fill="#1a1a0a" stroke="#d4a012" stroke-width="1"/>
    <text x="525" y="78" text-anchor="middle" font-family="Inter, Arial, sans-serif" font-size="13" font-weight="500" fill="#e2e8f0">Geographic</text>
    <text x="525" y="95" text-anchor="middle" font-family="Inter, Arial, sans-serif" font-size="10" fill="#64748b">Locations</text>
    
    <rect x="605" y="55" width="130" height="55" rx="8" fill="#1a1a0a" stroke="#d4a012" stroke-width="1"/>
    <text x="670" y="78" text-anchor="middle" font-family="Inter, Arial, sans-serif" font-size="13" font-weight="500" fill="#e2e8f0">Citations</text>
    <text x="670" y="95" text-anchor="middle" font-family="Inter, Arial, sans-serif" font-size="10" fill="#64748b">References</text>
    
    <rect x="750" y="55" width="130" height="55" rx="8" fill="#1a1a0a" stroke="#d4a012" stroke-width="1"/>
    <text x="815" y="78" text-anchor="middle" font-family="Inter, Arial, sans-serif" font-size="13" font-weight="500" fill="#e2e8f0">Emotions</text>
    <text x="815" y="95" text-anchor="middle" font-family="Inter, Arial, sans-serif" font-size="10" fill="#64748b">Framing</text>
    
    <rect x="895" y="55" width="130" height="55" rx="8" fill="#1a1a0a" stroke="#d4a012" stroke-width="1"/>
    <text x="960" y="78" text-anchor="middle" font-family="Inter, Arial, sans-serif" font-size="13" font-weight="500" fill="#e2e8f0">Authority</text>
    <text x="960" y="95" text-anchor="middle" font-family="Inter, Arial, sans-serif" font-size="10" fill="#64748b">Credentials</text>
  </g>
  
  <!-- Arrows splitting -->
  <line x1="600" y1="365" x2="600" y2="385" stroke="#64748b" stroke-width="2"/>
  <line x1="600" y1="385" x2="350" y2="385" stroke="#00d4ff" stroke-width="2"/>
  <line x1="350" y1="385" x2="350" y2="405" stroke="#00d4ff" stroke-width="2"/>
  <polygon points="350,410 345,400 355,400" fill="#00d4ff"/>
  
  <line x1="600" y1="385" x2="850" y2="385" stroke="#d4a012" stroke-width="2"/>
  <line x1="850" y1="385" x2="850" y2="405" stroke="#d4a012" stroke-width="2"/>
  <polygon points="850,410 845,400 855,400" fill="#d4a012"/>
  
  <!-- ==================== LAYER 3: DUAL STORAGE ==================== -->
  <!-- Knowledge Graph (Neo4j) - Left -->
  <g transform="translate(50, 410)">
    <rect x="0" y="0" width="520" height="130" rx="12" fill="#0a1628" stroke="#00d4ff" stroke-width="1"/>
    <rect x="0" y="0" width="520" height="130" rx="12" fill="#00d4ff" opacity="0.05"/>
    
    <text x="25" y="35" font-family="Inter, Arial, sans-serif" font-size="14" font-weight="600" fill="#00d4ff" letter-spacing="2">KNOWLEDGE GRAPH</text>
    
    <rect x="400" y="12" width="90" height="28" rx="14" fill="#0d2847" stroke="#00d4ff" stroke-width="1"/>
    <text x="445" y="31" text-anchor="middle" font-family="Inter, Arial, sans-serif" font-size="11" fill="#00d4ff">Neo4j</text>
    
    <rect x="25" y="55" width="145" height="55" rx="8" fill="#0d2847" stroke="#00d4ff" stroke-width="1"/>
    <text x="97" y="78" text-anchor="middle" font-family="Inter, Arial, sans-serif" font-size="12" fill="#e2e8f0">Entity Resolution</text>
    <text x="97" y="95" text-anchor="middle" font-family="Inter, Arial, sans-serif" font-size="10" fill="#64748b">Linking</text>
    
    <rect x="185" y="55" width="145" height="55" rx="8" fill="#0d2847" stroke="#00d4ff" stroke-width="1"/>
    <text x="257" y="78" text-anchor="middle" font-family="Inter, Arial, sans-serif" font-size="12" fill="#e2e8f0">Coreference</text>
    <text x="257" y="95" text-anchor="middle" font-family="Inter, Arial, sans-serif" font-size="10" fill="#64748b">Pronoun Chains</text>
    
    <rect x="345" y="55" width="145" height="55" rx="8" fill="#0d2847" stroke="#00d4ff" stroke-width="1"/>
    <text x="417" y="78" text-anchor="middle" font-family="Inter, Arial, sans-serif" font-size="12" fill="#e2e8f0">Citation Mapping</text>
    <text x="417" y="95" text-anchor="middle" font-family="Inter, Arial, sans-serif" font-size="10" fill="#64748b">Topology</text>
  </g>
  
  <!-- Vector Store (pgvector) - Right -->
  <g transform="translate(630, 410)">
    <rect x="0" y="0" width="520" height="130" rx="12" fill="#0a1628" stroke="#d4a012" stroke-width="1"/>
    <rect x="0" y="0" width="520" height="130" rx="12" fill="#d4a012" opacity="0.05"/>
    
    <text x="25" y="35" font-family="Inter, Arial, sans-serif" font-size="14" font-weight="600" fill="#d4a012" letter-spacing="2">VECTOR STORE</text>
    
    <rect x="400" y="12" width="90" height="28" rx="14" fill="#1a1a0a" stroke="#d4a012" stroke-width="1"/>
    <text x="445" y="31" text-anchor="middle" font-family="Inter, Arial, sans-serif" font-size="11" fill="#d4a012">pgvector</text>
    
    <rect x="25" y="55" width="145" height="55" rx="8" fill="#1a1a0a" stroke="#d4a012" stroke-width="1"/>
    <text x="97" y="78" text-anchor="middle" font-family="Inter, Arial, sans-serif" font-size="12" fill="#e2e8f0">Embeddings</text>
    <text x="97" y="95" text-anchor="middle" font-family="Inter, Arial, sans-serif" font-size="10" fill="#64748b">Chunk Vectors</text>
    
    <rect x="185" y="55" width="145" height="55" rx="8" fill="#1a1a0a" stroke="#d4a012" stroke-width="1"/>
    <text x="257" y="78" text-anchor="middle" font-family="Inter, Arial, sans-serif" font-size="12" fill="#e2e8f0">Semantic Search</text>
    <text x="257" y="95" text-anchor="middle" font-family="Inter, Arial, sans-serif" font-size="10" fill="#64748b">Similarity</text>
    
    <rect x="345" y="55" width="145" height="55" rx="8" fill="#1a1a0a" stroke="#d4a012" stroke-width="1"/>
    <text x="417" y="78" text-anchor="middle" font-family="Inter, Arial, sans-serif" font-size="12" fill="#e2e8f0">Claim Dedup</text>
    <text x="417" y="95" text-anchor="middle" font-family="Inter, Arial, sans-serif" font-size="10" fill="#64748b">Matching</text>
  </g>
  
  <!-- Arrows merging -->
  <line x1="310" y1="545" x2="310" y2="565" stroke="#00d4ff" stroke-width="2"/>
  <line x1="310" y1="565" x2="600" y2="565" stroke="#00d4ff" stroke-width="2"/>
  <line x1="890" y1="545" x2="890" y2="565" stroke="#d4a012" stroke-width="2"/>
  <line x1="890" y1="565" x2="600" y2="565" stroke="#d4a012" stroke-width="2"/>
  <line x1="600" y1="565" x2="600" y2="585" stroke="#10b981" stroke-width="2"/>
  <polygon points="600,590 595,580 605,580" fill="#10b981"/>
  
  <!-- ==================== LAYER 4: DETECTION ALGORITHMS ==================== -->
  <g transform="translate(50, 595)">
    <rect x="0" y="0" width="1100" height="115" rx="12" fill="#0a1628" stroke="#10b981" stroke-width="1"/>
    <rect x="0" y="0" width="1100" height="115" rx="12" fill="#10b981" opacity="0.05"/>
    
    <text x="25" y="35" font-family="Inter, Arial, sans-serif" font-size="14" font-weight="600" fill="#10b981" letter-spacing="2">DETECTION ALGORITHMS</text>
    
    <rect x="900" y="12" width="170" height="28" rx="14" fill="#0a2018" stroke="#10b981" stroke-width="1"/>
    <text x="985" y="31" text-anchor="middle" font-family="Inter, Arial, sans-serif" font-size="11" fill="#10b981">Two-Stage Pipeline</text>
    
    <rect x="25" y="55" width="195" height="45" rx="8" fill="#0a2018" stroke="#10b981" stroke-width="1"/>
    <text x="122" y="75" text-anchor="middle" font-family="Inter, Arial, sans-serif" font-size="12" font-weight="500" fill="#e2e8f0">Suppression Detection</text>
    <text x="122" y="90" text-anchor="middle" font-family="Inter, Arial, sans-serif" font-size="9" fill="#64748b">Credential Inversion</text>
    
    <rect x="235" y="55" width="195" height="45" rx="8" fill="#0a2018" stroke="#10b981" stroke-width="1"/>
    <text x="332" y="75" text-anchor="middle" font-family="Inter, Arial, sans-serif" font-size="12" font-weight="500" fill="#e2e8f0">Coordination Detection</text>
    <text x="332" y="90" text-anchor="middle" font-family="Inter, Arial, sans-serif" font-size="9" fill="#64748b">Temporal Clustering</text>
    
    <rect x="445" y="55" width="195" height="45" rx="8" fill="#0a2018" stroke="#10b981" stroke-width="1"/>
    <text x="542" y="75" text-anchor="middle" font-family="Inter, Arial, sans-serif" font-size="12" font-weight="500" fill="#e2e8f0">Anomaly Detection</text>
    <text x="542" y="90" text-anchor="middle" font-family="Inter, Arial, sans-serif" font-size="9" fill="#64748b">Cross-Cultural</text>
    
    <rect x="655" y="55" width="195" height="45" rx="8" fill="#0a2018" stroke="#10b981" stroke-width="1"/>
    <text x="752" y="75" text-anchor="middle" font-family="Inter, Arial, sans-serif" font-size="12" font-weight="500" fill="#e2e8f0">Goldfinger Scoring</text>
    <text x="752" y="90" text-anchor="middle" font-family="Inter, Arial, sans-serif" font-size="9" fill="#64748b">Signal Fusion</text>
    
    <rect x="865" y="55" width="160" height="45" rx="8" fill="#0d2847" stroke="#00d4ff" stroke-width="1"/>
    <text x="945" y="75" text-anchor="middle" font-family="Inter, Arial, sans-serif" font-size="12" font-weight="500" fill="#e2e8f0">Calibration</text>
    <text x="945" y="90" text-anchor="middle" font-family="Inter, Arial, sans-serif" font-size="9" fill="#64748b">Profile Tuning</text>
  </g>
  
  <!-- Arrow down -->
  <line x1="600" y1="715" x2="600" y2="735" stroke="#d4a012" stroke-width="2"/>
  <polygon points="600,740 595,730 605,730" fill="#d4a012"/>
  
  <!-- ==================== LAYER 5: INTERFACE LAYER ==================== -->
  <g transform="translate(50, 745)">
    <rect x="0" y="0" width="1100" height="105" rx="12" fill="#0a1628" stroke="#d4a012" stroke-width="1"/>
    <rect x="0" y="0" width="1100" height="105" rx="12" fill="#d4a012" opacity="0.05"/>
    
    <text x="25" y="35" font-family="Inter, Arial, sans-serif" font-size="14" font-weight="600" fill="#d4a012" letter-spacing="2">INTERFACE LAYER</text>
    
    <rect x="25" y="50" width="130" height="40" rx="8" fill="#1a1a0a" stroke="#d4a012" stroke-width="1.5"/>
    <text x="90" y="75" text-anchor="middle" font-family="Inter, Arial, sans-serif" font-size="12" fill="#e2e8f0">Web UI</text>
    
    <rect x="170" y="50" width="160" height="40" rx="8" fill="#1a1a0a" stroke="#d4a012" stroke-width="1"/>
    <text x="250" y="75" text-anchor="middle" font-family="Inter, Arial, sans-serif" font-size="12" fill="#e2e8f0">Graph Visualization</text>
    
    <rect x="345" y="50" width="130" height="40" rx="8" fill="#1a1a0a" stroke="#d4a012" stroke-width="1"/>
    <text x="410" y="75" text-anchor="middle" font-family="Inter, Arial, sans-serif" font-size="12" fill="#e2e8f0">Pattern Search</text>
    
    <rect x="490" y="50" width="140" height="40" rx="8" fill="#0d2847" stroke="#00d4ff" stroke-width="2"/>
    <text x="560" y="75" text-anchor="middle" font-family="Inter, Arial, sans-serif" font-size="12" font-weight="600" fill="#00d4ff">MCP Endpoints</text>
    
    <rect x="645" y="50" width="110" height="40" rx="8" fill="#1a1a0a" stroke="#d4a012" stroke-width="1"/>
    <text x="700" y="75" text-anchor="middle" font-family="Inter, Arial, sans-serif" font-size="12" fill="#e2e8f0">REST API</text>
    
    <rect x="770" y="50" width="120" height="40" rx="8" fill="#1a1a0a" stroke="#d4a012" stroke-width="1"/>
    <text x="830" y="75" text-anchor="middle" font-family="Inter, Arial, sans-serif" font-size="12" fill="#e2e8f0">Admin Panel</text>
    
    <!-- External systems -->
    <text x="920" y="60" font-family="Inter, Arial, sans-serif" font-size="10" fill="#64748b">INTEGRATIONS</text>
    <text x="920" y="75" font-family="Inter, Arial, sans-serif" font-size="10" fill="#94a3b8">Claude Desktop</text>
    <text x="920" y="88" font-family="Inter, Arial, sans-serif" font-size="10" fill="#94a3b8">xAI / Mistral</text>
  </g>
  
  <!-- Footer -->
  <text x="600" y="880" text-anchor="middle" font-family="Inter, Arial, sans-serif" font-size="11" fill="#475569">Eletherios — Epistemic Defense Infrastructure — See. Verify. Liberate.</text>
  
</svg>
